<svg width="88" height="64" viewBox="0 0 88 64" fill="none" xmlns="http://www.w3.org/2000/svg">
  <path d="M23.848 45.32V27.8H26.776V30.32H26.824C26.968 29.44 27.344 28.76 27.952 28.28C28.576 27.8 29.368 27.56 30.328 27.56C31.656 27.56 32.72 28.016 33.52 28.928C34.32 29.84 34.72 31.064 34.72 32.6V36.176C34.72 37.728 34.32 38.96 33.52 39.872C32.72 40.784 31.656 41.24 30.328 41.24C29.368 41.24 28.576 41 27.952 40.52C27.344 40.024 26.968 39.344 26.824 38.48H26.752L26.848 41.624V45.32H23.848ZM29.272 38.648C30.04 38.648 30.64 38.424 31.072 37.976C31.504 37.528 31.72 36.888 31.72 36.056V32.744C31.72 31.912 31.504 31.272 31.072 30.824C30.64 30.376 30.04 30.152 29.272 30.152C28.52 30.152 27.928 30.384 27.496 30.848C27.064 31.296 26.848 31.928 26.848 32.744V36.056C26.848 36.872 27.064 37.512 27.496 37.976C27.928 38.424 28.52 38.648 29.272 38.648ZM45.7266 41C44.4146 41 43.3586 40.608 42.5586 39.824C41.7746 39.04 41.3826 38.008 41.3826 36.728V26.192H37.0386V23.48H44.3826V36.728C44.3826 37.192 44.5186 37.568 44.7906 37.856C45.0786 38.144 45.4626 38.288 45.9426 38.288H49.8066V41H45.7266ZM57.4773 41.216C55.9733 41.216 54.7573 40.872 53.8293 40.184C52.9173 39.496 52.4373 38.568 52.3893 37.4H55.3893C55.4213 37.832 55.6213 38.176 55.9893 38.432C56.3733 38.672 56.8693 38.792 57.4773 38.792H58.5333C59.2693 38.792 59.8213 38.648 60.1893 38.36C60.5573 38.072 60.7413 37.68 60.7413 37.184C60.7413 36.304 60.0693 35.768 58.7253 35.576L57.0933 35.336C55.5893 35.128 54.4853 34.728 53.7812 34.136C53.0773 33.544 52.7253 32.656 52.7253 31.472C52.7253 30.24 53.1413 29.288 53.9733 28.616C54.8053 27.928 56.0293 27.584 57.6453 27.584H58.5573C60.0133 27.584 61.1813 27.912 62.0613 28.568C62.9573 29.224 63.4373 30.104 63.5013 31.208H60.5013C60.4533 30.856 60.2533 30.568 59.9013 30.344C59.5653 30.12 59.1173 30.008 58.5573 30.008H57.6453C56.9573 30.008 56.4533 30.136 56.1333 30.392C55.8293 30.632 55.6773 30.992 55.6773 31.472C55.6773 31.92 55.8133 32.256 56.0853 32.48C56.3573 32.704 56.7973 32.856 57.4053 32.936L59.1093 33.176C60.6773 33.4 61.8293 33.824 62.5653 34.448C63.3173 35.056 63.6933 35.96 63.6933 37.16C63.6933 38.456 63.2533 39.456 62.3733 40.16C61.5093 40.864 60.2293 41.216 58.5333 41.216H57.4773Z" fill="#DC322F"/>
</svg>
