<svg width="192" height="64" viewBox="0 0 192 64" fill="none" xmlns="http://www.w3.org/2000/svg">
  <path
    d="M74.6016 27.457C72.75 27.457 71.4492 28.2773 70.9102 29.7773H70.6758V27.668H67.9102V44.8008H70.7227V38.4023H70.957C71.4375 39.8789 72.75 40.7227 74.6016 40.7227C77.5547 40.7227 79.3828 38.6484 79.3828 35.2266V32.9414C79.3828 29.5312 77.5547 27.457 74.6016 27.457ZM73.6289 29.8477C75.4688 29.8477 76.6055 31.1016 76.6055 33.1172V35.1328C76.6055 37.1367 75.4688 38.4023 73.6289 38.4023C71.8008 38.4023 70.6641 37.1484 70.6641 35.1328V33.1172C70.6641 31.1016 71.8008 29.8477 73.6289 29.8477ZM108.738 40.5V38.3203H104.742V22.7109H97.957V24.8906H102.023V38.3203H97.8164V40.5H108.738ZM112.934 31.3008C112.934 33.2109 114.129 34.4297 116.496 34.957L118.418 35.3789C119.883 35.6953 120.422 36.1289 120.422 36.9727C120.422 37.9688 119.484 38.625 117.996 38.625C116.543 38.625 115.57 38.0508 115.336 37.043H112.629C112.816 39.3633 114.809 40.7578 117.949 40.7578C121.172 40.7578 123.223 39.1523 123.223 36.6562C123.223 34.7344 122.086 33.6445 119.52 33.0938L117.609 32.6836C116.215 32.3789 115.629 31.9102 115.629 31.0898C115.629 30.1289 116.531 29.4961 117.902 29.4961C119.227 29.4961 120.152 30.0938 120.34 31.0547H122.918C122.742 28.7461 120.879 27.3867 117.938 27.3867C114.902 27.3867 112.934 28.9102 112.934 31.3008Z"
    fill="#DC322F"/>
  <path
    d="M88.2656 33.8438C89.4375 33.8438 90.2227 33.0352 90.2227 31.875C90.2227 30.7266 89.4375 29.918 88.2656 29.918C87.0938 29.918 86.2969 30.7266 86.2969 31.875C86.2969 33.0352 87.0938 33.8438 88.2656 33.8438Z"
    fill="#7F7F7F"/>
</svg>
