<svg
  viewBox="0 0 64 64"
  fill="none"
  xmlns="http://www.w3.org/2000/svg">
  <path
    fill-rule="evenodd"
    clip-rule="evenodd"
    d="M24.1229 15.1268C23.8008 14.9553 23.4408 14.8673 23.0759 14.8709L23.0545 14.8711L14.5455 14.871C13.9668 14.871 13.4118 15.1009 13.0027 15.51C12.5935 15.9192 12.3636 16.4742 12.3636 17.0528V45.4164C12.3636 45.9951 12.5935 46.55 13.0027 46.9592C13.4118 47.3684 13.9668 47.5983 14.5455 47.5983H29.8182C31.0232 47.5983 32 48.5751 32 49.7801C32 50.9851 31.0232 51.9619 29.8182 51.9619H14.5455C12.8095 51.9619 11.1446 51.2723 9.91712 50.0448C8.68961 48.8173 8 47.1524 8 45.4164V17.0528C8 15.3168 8.68961 13.652 9.91712 12.4245C11.1446 11.197 12.8095 10.5074 14.5455 10.5074H23.0449C24.1356 10.4986 25.2112 10.7626 26.174 11.2753C27.1362 11.7877 27.9551 12.5323 28.5565 13.4415L30.3314 16.0709C30.53 16.3726 30.8004 16.6203 31.1184 16.7916C31.4362 16.963 31.7916 17.0527 32.1527 17.0528H49.4545C51.1905 17.0528 52.8554 17.7424 54.0829 18.9699C55.3104 20.1974 56 21.8623 56 23.5983V26.871C56 28.076 55.0232 29.0528 53.8182 29.0528C52.6132 29.0528 51.6364 28.076 51.6364 26.871V23.5983C51.6364 23.0196 51.4065 22.4647 50.9973 22.0555C50.5881 21.6463 50.0332 21.4164 49.4545 21.4164H32.1527C31.0691 21.4163 30.0021 21.147 29.0482 20.633C28.0983 20.121 27.2898 19.3823 26.6945 18.4824L24.9195 15.8528C24.7188 15.548 24.445 15.2984 24.1229 15.1268Z"
    fill="#4c4f69" />
  <path
    d="M53.7621 45.0741L45.2918 52.982C44.9402 53.3101 44.4761 53.4929 43.9933 53.4929C43.5105 53.4929 43.0465 53.3101 42.6949 52.982L34.2246 45.0741C32.7996 43.7476 31.9933 41.8866 31.9933 39.9413V39.6695C31.9933 36.3929 34.3605 33.5991 37.5902 33.0601C39.7277 32.7038 41.9027 33.4023 43.4308 34.9304L43.9933 35.4929L44.5558 34.9304C46.084 33.4023 48.259 32.7038 50.3965 33.0601C53.6261 33.5991 55.9933 36.3929 55.9933 39.6695V39.9413C55.9933 41.8866 55.1871 43.7476 53.7621 45.0741Z"
    fill="#d20f39" />
</svg>
