<svg
  width="64"
  height="64"
  viewBox="0 0 64 64"
  xmlns="http://www.w3.org/2000/svg">
  <path
    d="M8 14.6666V48.3333C8 49.7478 8.5619 51.1044 9.5621 52.1045C10.5623 53.1047 11.9188 53.6666 13.3333 53.6666H50.6667C52.0812 53.6666 53.4377 53.1047 54.4379 52.1045C55.4381 51.1044 56 49.7478 56 48.3333V20C56 18.5855 55.4381 17.2289 54.4379 16.2287C53.4377 15.2285 52.0812 14.6666 50.6667 14.6666H34.6667L29.3333 9.33331H13.3333C11.9188 9.33331 10.5623 9.89522 9.5621 10.8954C8.5619 11.8956 8 13.2522 8 14.6666Z"
    stroke="white"
    stroke-width="4"
    stroke-linecap="round"
    stroke-linejoin="round"
    fill="none" />
  <path
    fill-rule="evenodd"
    clip-rule="evenodd"
    d="M32 22.371C32.4304 22.371 32.8125 22.6464 32.9487 23.0548L35.5918 30.983L42.1289 33.4347C42.5192 33.5811 42.7778 33.9542 42.7778 34.371C42.7778 34.7879 42.5192 35.161 42.1289 35.3073L35.5918 37.7591L32.9487 45.6873C32.8125 46.0956 32.4304 46.371 32 46.371C31.5696 46.371 31.1875 46.0956 31.0513 45.6873L28.4082 37.7591L21.8711 35.3073C21.4808 35.161 21.2222 34.7879 21.2222 34.371C21.2222 33.9542 21.4808 33.5811 21.8711 33.4347L28.4082 30.983L31.0513 23.0548C31.1875 22.6464 31.5696 22.371 32 22.371Z"
    fill="#dc322f" />
  <path
    fill-rule="evenodd"
    clip-rule="evenodd"
    d="M23.6667 40.4821C24.219 40.4821 24.6667 40.9299 24.6667 41.4821V42.9266H26.1111C26.6634 42.9266 27.1111 43.3743 27.1111 43.9266C27.1111 44.4789 26.6634 44.9266 26.1111 44.9266H24.6667V46.371C24.6667 46.9233 24.219 47.371 23.6667 47.371C23.1144 47.371 22.6667 46.9233 22.6667 46.371V44.9266H21.2222C20.6699 44.9266 20.2222 44.4789 20.2222 43.9266C20.2222 43.3743 20.6699 42.9266 21.2222 42.9266H22.6667V41.4821C22.6667 40.9299 23.1144 40.4821 23.6667 40.4821Z"
    fill="#dc322f" />
  <path
    fill-rule="evenodd"
    clip-rule="evenodd"
    d="M23.6667 21.371C24.219 21.371 24.6667 21.8187 24.6667 22.371V23.8155H26.1111C26.6634 23.8155 27.1111 24.2632 27.1111 24.8155C27.1111 25.3678 26.6634 25.8155 26.1111 25.8155H24.6667V27.2599C24.6667 27.8122 24.219 28.2599 23.6667 28.2599C23.1144 28.2599 22.6667 27.8122 22.6667 27.2599V25.8155H21.2222C20.6699 25.8155 20.2222 25.3678 20.2222 24.8155C20.2222 24.2632 20.6699 23.8155 21.2222 23.8155H22.6667V22.371C22.6667 21.8187 23.1144 21.371 23.6667 21.371Z"
    fill="#dc322f" />
</svg>
